<svg width="38" height="22" viewBox="0 0 38 22" fill="none" xmlns="http://www.w3.org/2000/svg">
<path d="M23.0872 1.68688C23.0157 1.26821 22.6529 0.961914 22.2278 0.961914H2.62957C2.06477 0.961914 1.60743 1.41977 1.60743 1.98353C1.60743 2.54834 2.06477 3.00568 2.62957 3.00568H7.39909C7.96389 3.00568 8.42123 3.46361 8.42123 4.02789C8.42123 4.59218 7.96389 5.05003 7.39909 5.05003H1.02214C0.457855 5.05003 0 5.50789 0 6.07217C0 6.63646 0.457855 7.09372 1.02214 7.09372H9.7142C10.2129 7.09372 10.6176 7.49895 10.6176 7.9977C10.6176 8.49645 10.2129 8.90109 9.7142 8.90109H5.09623C4.53143 8.90109 4.07409 9.35902 4.07409 9.92331C4.07409 10.4875 4.53143 10.9454 5.09623 10.9454H8.49968C8.99888 10.9454 9.40359 11.3501 9.40359 11.8488C9.40359 12.3475 8.99888 12.7522 8.49968 12.7522H3.80111C3.23631 12.7522 2.77897 13.2101 2.77897 13.7744C2.77897 14.3387 3.23631 14.7965 3.80111 14.7965H10.2592L10.6665 17.1004H13.0059C12.8683 17.4347 12.7898 17.7996 12.7898 18.1839C12.7898 19.7606 14.0677 21.0386 15.6446 21.0386C17.2208 21.0386 18.4987 19.7606 18.4987 18.1839C18.4987 17.7996 18.4203 17.4347 18.2827 17.1004H25.7075L23.0872 1.68688ZM16.873 18.1838C16.873 18.8626 16.3233 19.4123 15.6445 19.4123C14.9652 19.4123 14.4154 18.8626 14.4154 18.1838C14.4154 17.7115 14.6846 17.3062 15.0754 17.1003H16.2131C16.6038 17.3062 16.873 17.7114 16.873 18.1838Z" fill="#1677FF"/>
<path d="M37.9705 15.3098L36.7979 9.52508L32.5163 2.9375H24.7207L27.1353 17.0998H29.9868C29.8498 17.4341 29.7713 17.7991 29.7713 18.1833C29.7713 19.7601 31.0493 21.038 32.6254 21.038C34.2023 21.038 35.4802 19.7601 35.4802 18.1833C35.4802 17.7991 35.4017 17.4341 35.2642 17.0998H36.5067C36.9549 17.0998 37.3795 16.8989 37.6632 16.5517C37.9464 16.2051 38.0597 15.7488 37.9705 15.3098ZM29.1334 5.57301H31.0864L33.6218 9.47298H29.7987L29.1334 5.57301ZM33.8545 18.1833C33.8545 18.8621 33.3048 19.4118 32.6254 19.4118C31.9472 19.4118 31.397 18.8621 31.397 18.1833C31.397 17.711 31.6668 17.3057 32.0569 17.0998H33.1946C33.5853 17.3057 33.8545 17.7109 33.8545 18.1833Z" fill="#1677FF"/>
</svg>
