<svg width="16" height="16" viewBox="0 0 16 16" fill="none" xmlns="http://www.w3.org/2000/svg">
<path d="M7.33301 11.3334H8.66634V8.66671H11.333V7.33337H8.66634V4.66671H7.33301V7.33337H4.66634V8.66671H7.33301V11.3334ZM7.99967 14.6667C7.07745 14.6667 6.21079 14.4945 5.39967 14.15C4.58856 13.7945 3.88301 13.3167 3.28301 12.7167C2.68301 12.1167 2.20523 11.4112 1.84967 10.6C1.50523 9.78893 1.33301 8.92226 1.33301 8.00004C1.33301 7.07782 1.50523 6.21115 1.84967 5.40004C2.20523 4.58893 2.68301 3.88337 3.28301 3.28337C3.88301 2.68337 4.58856 2.21115 5.39967 1.86671C6.21079 1.51115 7.07745 1.33337 7.99967 1.33337C8.9219 1.33337 9.78856 1.51115 10.5997 1.86671C11.4108 2.21115 12.1163 2.68337 12.7163 3.28337C13.3163 3.88337 13.7886 4.58893 14.133 5.40004C14.4886 6.21115 14.6663 7.07782 14.6663 8.00004C14.6663 8.92226 14.4886 9.78893 14.133 10.6C13.7886 11.4112 13.3163 12.1167 12.7163 12.7167C12.1163 13.3167 11.4108 13.7945 10.5997 14.15C9.78856 14.4945 8.9219 14.6667 7.99967 14.6667ZM7.99967 13.3334C9.48856 13.3334 10.7497 12.8167 11.783 11.7834C12.8163 10.75 13.333 9.48893 13.333 8.00004C13.333 6.51115 12.8163 5.25004 11.783 4.21671C10.7497 3.18337 9.48856 2.66671 7.99967 2.66671C6.51079 2.66671 5.24967 3.18337 4.21634 4.21671C3.18301 5.25004 2.66634 6.51115 2.66634 8.00004C2.66634 9.48893 3.18301 10.75 4.21634 11.7834C5.24967 12.8167 6.51079 13.3334 7.99967 13.3334Z" fill="white"/>
</svg>
