<svg width="18" height="19" viewBox="0 0 18 19" fill="none" xmlns="http://www.w3.org/2000/svg">
<path d="M5 11.8209C4.75517 11.8209 4.5465 11.7401 4.374 11.5785C4.20167 11.4168 4.1155 11.2212 4.1155 10.9917C4.1155 10.7621 4.20167 10.5665 4.374 10.4048C4.5465 10.2431 4.75517 10.1622 5 10.1622C5.24483 10.1622 5.4535 10.2431 5.626 10.4048C5.79833 10.5665 5.8845 10.7621 5.8845 10.9917C5.8845 11.2212 5.79833 11.4168 5.626 11.5785C5.4535 11.7401 5.24483 11.8209 5 11.8209ZM9 11.8209C8.75517 11.8209 8.5465 11.7401 8.374 11.5785C8.20167 11.4168 8.1155 11.2212 8.1155 10.9917C8.1155 10.7621 8.20167 10.5665 8.374 10.4048C8.5465 10.2431 8.75517 10.1622 9 10.1622C9.24483 10.1622 9.4535 10.2431 9.626 10.4048C9.79833 10.5665 9.8845 10.7621 9.8845 10.9917C9.8845 11.2212 9.79833 11.4168 9.626 11.5785C9.4535 11.7401 9.24483 11.8209 9 11.8209ZM13 11.8209C12.7552 11.8209 12.5465 11.7401 12.374 11.5785C12.2017 11.4168 12.1155 11.2212 12.1155 10.9917C12.1155 10.7621 12.2017 10.5665 12.374 10.4048C12.5465 10.2431 12.7552 10.1622 13 10.1622C13.2448 10.1622 13.4535 10.2431 13.626 10.4048C13.7983 10.5665 13.8845 10.7621 13.8845 10.9917C13.8845 11.2212 13.7983 11.4168 13.626 11.5785C13.4535 11.7401 13.2448 11.8209 13 11.8209ZM2.30775 18.9063C1.80258 18.9063 1.375 18.7422 1.025 18.4141C0.675 18.086 0.5 17.6851 0.5 17.2115V4.66353C0.5 4.18994 0.675 3.78908 1.025 3.46095C1.375 3.13283 1.80258 2.96876 2.30775 2.96876H3.69225V0.985718H5.23075V2.96876H12.8077V0.985718H14.3077V2.96876H15.6923C16.1974 2.96876 16.625 3.13283 16.975 3.46095C17.325 3.78908 17.5 4.18994 17.5 4.66353V17.2115C17.5 17.6851 17.325 18.086 16.975 18.4141C16.625 18.7422 16.1974 18.9063 15.6923 18.9063H2.30775ZM2.30775 17.5H15.6923C15.7692 17.5 15.8398 17.4699 15.9038 17.4098C15.9679 17.3498 16 17.2837 16 17.2115V8.41353H2V17.2115C2 17.2837 2.03208 17.3498 2.09625 17.4098C2.16025 17.4699 2.23075 17.5 2.30775 17.5ZM2 7.00728H16V4.66353C16 4.59134 15.9679 4.52525 15.9038 4.46525C15.8398 4.40509 15.7692 4.37501 15.6923 4.37501H2.30775C2.23075 4.37501 2.16025 4.40509 2.09625 4.46525C2.03208 4.52525 2 4.59134 2 4.66353V7.00728Z" fill="black" fill-opacity="0.65"/>
</svg>
