<svg width="31" height="30" viewBox="0 0 31 30" fill="none" xmlns="http://www.w3.org/2000/svg">
<rect x="0.927734" width="30" height="30" rx="4" fill="white"/>
<path d="M19.8747 8.9676L19.8827 8.9636H19.8867L15.9276 6.69043L11.9705 8.9636H11.9665L11.9805 8.96959L8.72656 10.8453V19.1549L15.9276 23.3097L23.1286 19.1549V10.8453L19.8747 8.9676ZM15.3423 21.6238L12.4839 19.9739V17.1854L9.89511 15.7152V12.2215L15.3423 15.3636V21.6238ZM10.4584 11.1948L13.1491 9.64076L15.9236 11.2328L18.7021 9.63676L21.4028 11.1948L15.9316 14.3509L10.4584 11.1948ZM21.9601 15.7252L19.3873 17.1854V19.9639L16.5129 21.6219V15.3676L21.9601 12.2255V15.7252Z" fill="#003EB3" fill-opacity="0.88"/>
</svg>
