<svg width="36" height="36" viewBox="0 0 36 36" fill="none" xmlns="http://www.w3.org/2000/svg">
<rect width="36" height="36" rx="8" fill="#FFCC91" fill-opacity="0.16"/>
<path fill-rule="evenodd" clip-rule="evenodd" d="M15.9927 20.6724C19.0668 20.6724 21.6943 21.1382 21.6943 22.999C21.6943 24.8599 19.0843 25.339 15.9927 25.339C12.9177 25.339 10.291 24.8774 10.291 23.0157C10.291 21.154 12.9002 20.6724 15.9927 20.6724Z" stroke="#130F26" stroke-width="1.5" stroke-linecap="round" stroke-linejoin="round"/>
<path fill-rule="evenodd" clip-rule="evenodd" d="M15.9929 18.0166C13.9746 18.0166 12.3379 16.3808 12.3379 14.3624C12.3379 12.3441 13.9746 10.7083 15.9929 10.7083C18.0104 10.7083 19.6471 12.3441 19.6471 14.3624C19.6546 16.3733 18.0296 18.0091 16.0187 18.0166H15.9929Z" stroke="#130F26" stroke-width="1.5" stroke-linecap="round" stroke-linejoin="round"/>
<path d="M21.7358 17.0681C23.07 16.8806 24.0975 15.7356 24.1 14.3498C24.1 12.984 23.1042 11.8506 21.7983 11.6365" stroke="#130F26" stroke-width="1.5" stroke-linecap="round" stroke-linejoin="round"/>
<path d="M23.4961 20.2769C24.7886 20.4694 25.6911 20.9227 25.6911 21.856C25.6911 22.4985 25.2661 22.9152 24.5794 23.176" stroke="#130F26" stroke-width="1.5" stroke-linecap="round" stroke-linejoin="round"/>
</svg>
