<svg width="32" height="32" viewBox="0 0 32 32" fill="none" xmlns="http://www.w3.org/2000/svg">
<rect x="0.5" y="0.5" width="31" height="31" rx="5.5" fill="black" fill-opacity="0.06"/>
<rect x="0.5" y="0.5" width="31" height="31" rx="5.5" stroke="#D9D9D9"/>
<path d="M10.9375 10C10.8344 10 10.75 10.0844 10.75 10.1875V11.3125C10.75 11.4156 10.8344 11.5 10.9375 11.5H19.9375C20.0406 11.5 20.125 11.4156 20.125 11.3125V10.1875C20.125 10.0844 20.0406 10 19.9375 10H10.9375ZM15.4375 14.6875V13.5625C15.4375 13.4594 15.3531 13.375 15.25 13.375H10.9375C10.8344 13.375 10.75 13.4594 10.75 13.5625V14.6875C10.75 14.7906 10.8344 14.875 10.9375 14.875H15.25C15.3531 14.875 15.4375 14.7906 15.4375 14.6875ZM14.3125 23.9688H8.875V7.46875H22V15.5312C22 15.6344 22.0844 15.7188 22.1875 15.7188H23.5C23.6031 15.7188 23.6875 15.6344 23.6875 15.5312V6.53125C23.6875 6.11641 23.3523 5.78125 22.9375 5.78125H7.9375C7.52266 5.78125 7.1875 6.11641 7.1875 6.53125V24.9062C7.1875 25.3211 7.52266 25.6562 7.9375 25.6562H14.3125C14.4156 25.6562 14.5 25.5719 14.5 25.4688V24.1562C14.5 24.0531 14.4156 23.9688 14.3125 23.9688ZM16.7523 21.2594C16.7945 20.4508 17.132 19.6938 17.7086 19.1172C18.3227 18.5031 19.1617 18.1562 20.0312 18.1562C20.9078 18.1562 21.7328 18.4984 22.3539 19.1172C22.4289 19.1922 22.5016 19.2719 22.5695 19.3539L22.0281 19.7734C22.0002 19.795 21.979 19.8241 21.9668 19.8572C21.9547 19.8903 21.9521 19.9262 21.9595 19.9608C21.9668 19.9953 21.9837 20.027 22.0083 20.0524C22.0329 20.0777 22.0641 20.0955 22.0984 20.1039L24.2852 20.6312C24.4023 20.6594 24.5148 20.5703 24.5172 20.4508L24.5312 18.2148C24.5316 18.1796 24.522 18.145 24.5036 18.115C24.4852 18.085 24.4586 18.0607 24.4271 18.0451C24.3955 18.0294 24.3602 18.023 24.3252 18.0265C24.2901 18.03 24.2567 18.0433 24.2289 18.0648L23.7531 18.4352C22.8766 17.35 21.5336 16.6562 20.0312 16.6562C17.4555 16.6562 15.3531 18.693 15.25 21.243C15.2453 21.3484 15.332 21.4375 15.4375 21.4375H16.5648C16.6656 21.4375 16.7477 21.3602 16.7523 21.2594ZM24.625 21.4375H23.4977C23.3969 21.4375 23.3148 21.5148 23.3102 21.6156C23.268 22.4242 22.9305 23.1812 22.3539 23.7578C21.7398 24.3719 20.9008 24.7188 20.0312 24.7188C19.1547 24.7188 18.3297 24.3766 17.7086 23.7578C17.6336 23.6828 17.5609 23.6031 17.493 23.5211L18.0344 23.1016C18.0623 23.08 18.0835 23.0509 18.0957 23.0178C18.1078 22.9847 18.1104 22.9488 18.103 22.9142C18.0957 22.8797 18.0788 22.848 18.0542 22.8226C18.0296 22.7973 17.9984 22.7795 17.9641 22.7711L15.7773 22.2438C15.6602 22.2156 15.5477 22.3047 15.5453 22.4242L15.5312 24.6602C15.5309 24.6954 15.5405 24.73 15.5589 24.76C15.5773 24.79 15.6039 24.8143 15.6354 24.8299C15.667 24.8456 15.7023 24.852 15.7373 24.8485C15.7724 24.845 15.8058 24.8317 15.8336 24.8102L16.3094 24.4398C17.1859 25.525 18.5289 26.2188 20.0312 26.2188C22.607 26.2188 24.7094 24.182 24.8125 21.632C24.8172 21.5266 24.7305 21.4375 24.625 21.4375Z" fill="black" fill-opacity="0.65"/>
</svg>
