<svg width="32" height="32" viewBox="0 0 32 32" fill="none" xmlns="http://www.w3.org/2000/svg">
<path d="M5.99999 25.9999V10.1333L3.52832 4.72295L5.33832 3.87195L8.18965 10.0666H23.8103L26.6617 3.87195L28.4717 4.72295L26 10.1333V25.9999H5.99999ZM13.3333 16.9999H18.6667C18.95 16.9999 19.1874 16.9041 19.379 16.7123C19.5708 16.5205 19.6667 16.2829 19.6667 15.9996C19.6667 15.7161 19.5708 15.4786 19.379 15.2873C19.1874 15.0957 18.95 14.9999 18.6667 14.9999H13.3333C13.05 14.9999 12.8125 15.0958 12.621 15.2876C12.4292 15.4794 12.3333 15.7169 12.3333 16.0003C12.3333 16.2838 12.4292 16.5213 12.621 16.7126C12.8125 16.9042 13.05 16.9999 13.3333 16.9999ZM7.99999 23.9999H24V12.0666H7.99999V23.9999Z" fill="black" fill-opacity="0.45"/>
</svg>
