<svg width="24" height="25" viewBox="0 0 24 25" fill="none" xmlns="http://www.w3.org/2000/svg">
<path d="M3.44297 6.09453L5.93906 3.60078C6.24375 3.29609 6.65156 3.125 7.08281 3.125C7.51406 3.125 7.92188 3.29375 8.22656 3.60078L10.9148 6.28437C11.2195 6.58906 11.3906 6.99922 11.3906 7.43047C11.3906 7.86406 11.2219 8.26953 10.9148 8.57656L8.81484 10.6789C9.29324 11.7936 9.98061 12.8063 10.8398 13.6625C11.7 14.5273 12.7055 15.2094 13.8211 15.6922L15.9211 13.5898C16.2258 13.2852 16.6336 13.1141 17.0648 13.1141C17.2776 13.1133 17.4883 13.155 17.6847 13.2366C17.8811 13.3183 18.0592 13.4384 18.2086 13.5898L20.8992 16.2734C21.2039 16.5781 21.375 16.9883 21.375 17.4195C21.375 17.8531 21.2062 18.2586 20.8992 18.5656L18.4055 21.0594C17.8852 21.5797 17.168 21.8773 16.432 21.8773C16.2797 21.8773 16.132 21.8656 15.982 21.8398C12.8789 21.3289 9.79922 19.6766 7.3125 17.1922C4.82812 14.7031 3.17812 11.6234 2.6625 8.51797C2.51484 7.63672 2.81016 6.72969 3.44297 6.09453ZM4.32422 8.23906C4.78125 11.0023 6.26719 13.7586 8.50547 15.9969C10.7438 18.2352 13.4977 19.7211 16.2609 20.1781C16.6078 20.2367 16.9641 20.1195 17.2172 19.8687L19.6664 17.4195L17.0695 14.8203L14.2617 17.6328L14.2406 17.6539L13.7344 17.4664C12.1994 16.902 10.8055 16.0107 9.64924 14.854C8.49301 13.6974 7.60211 12.3032 7.03828 10.768L6.85078 10.2617L9.68203 7.43281L7.08516 4.83359L4.63594 7.28281C4.38281 7.53594 4.26562 7.89219 4.32422 8.23906Z" fill="black" fill-opacity="0.65"/>
</svg>
