<svg width="22" height="22" viewBox="0 0 22 22" fill="none" xmlns="http://www.w3.org/2000/svg">
<path d="M14.75 21.5768L7.25 18.9518L1.87031 21.0334C1.50177 21.1761 1.16042 21.1353 0.84625 20.9109C0.532083 20.6865 0.375 20.3797 0.375 19.9903V3.59622C0.375 3.34935 0.441146 3.12778 0.573438 2.93153C0.705521 2.73528 0.891042 2.5931 1.13 2.50497L7.25 0.423096L14.75 3.0481L20.1297 0.966534C20.4982 0.823825 20.8396 0.858618 21.1537 1.07091C21.4679 1.2832 21.625 1.58008 21.625 1.96153V18.4518C21.625 18.7066 21.5529 18.9302 21.4087 19.1225C21.2644 19.3148 21.0689 19.455 20.8222 19.5431L14.75 21.5768ZM13.8125 19.2837V4.65872L8.1875 2.69216V17.3172L13.8125 19.2837ZM15.6875 19.2837L19.75 17.9375V3.12497L15.6875 4.65872V19.2837ZM2.25 18.875L6.3125 17.3172V2.69216L2.25 4.06247V18.875Z" fill="black" fill-opacity="0.65"/>
</svg>
