<svg width="20" height="22" viewBox="0 0 20 22" fill="none" xmlns="http://www.w3.org/2000/svg">
<path d="M10.5644 5.39832H9.43704C9.33392 5.39832 9.24954 5.48269 9.24954 5.58582V12.0382C9.24954 12.0991 9.27767 12.1553 9.32689 12.1905L13.2011 15.0194C13.2855 15.0804 13.4027 15.0639 13.4636 14.9796L14.1339 14.0655C14.1972 13.9788 14.1784 13.8616 14.0941 13.803L10.7519 11.3866V5.58582C10.7519 5.48269 10.6675 5.39832 10.5644 5.39832ZM15.716 7.16082L19.3909 8.05848C19.5081 8.0866 19.623 7.99754 19.623 7.87801L19.6417 4.09285C19.6417 3.93582 19.4613 3.84676 19.3394 3.94519L15.6456 6.83035C15.6177 6.85195 15.5965 6.88098 15.5843 6.91412C15.5722 6.94726 15.5696 6.98315 15.577 7.01767C15.5843 7.0522 15.6013 7.08394 15.6258 7.10927C15.6504 7.13459 15.6817 7.15246 15.716 7.16082ZM19.6464 14.2179L18.3175 13.7608C18.2712 13.7449 18.2205 13.7478 18.1762 13.7688C18.132 13.7899 18.0977 13.8274 18.0808 13.8733C18.0363 13.9929 17.9894 14.11 17.9402 14.2272C17.523 15.2139 16.9253 16.1022 16.1613 16.8639C15.4057 17.6219 14.5102 18.226 13.5245 18.6429C12.5034 19.0746 11.4058 19.2962 10.2972 19.2944C9.17689 19.2944 8.09173 19.0764 7.06986 18.6429C6.08417 18.226 5.18872 17.6219 4.43314 16.8639C3.67142 16.1022 3.07376 15.2139 2.65423 14.2272C2.2249 13.2055 2.00493 12.1081 2.00736 10.9999C2.00736 9.87957 2.22533 8.79207 2.65892 7.77019C3.07611 6.78348 3.67376 5.89519 4.43783 5.13348C5.1934 4.37555 6.08886 3.77142 7.07454 3.35457C8.09173 2.92097 9.17923 2.70301 10.2995 2.70301C11.4199 2.70301 12.505 2.92097 13.5269 3.35457C14.5126 3.77142 15.408 4.37555 16.1636 5.13348C16.4027 5.37488 16.6277 5.62566 16.8339 5.89051L18.2355 4.79363C16.3909 2.43582 13.5199 0.919412 10.2949 0.921756C4.67923 0.924099 0.169857 5.48504 0.226107 11.103C0.282357 16.6225 4.77064 21.078 10.2995 21.078C14.6472 21.078 18.3503 18.3218 19.7613 14.4616C19.7964 14.3632 19.7449 14.253 19.6464 14.2179Z" fill="black" fill-opacity="0.45"/>
</svg>
