<svg width="16" height="17" viewBox="0 0 16 17" fill="none" xmlns="http://www.w3.org/2000/svg">
<path d="M2.35573 15H13.6442C13.7339 15 13.8108 14.9632 13.875 14.8895C13.9392 14.8157 13.9648 14.7339 13.952 14.6443L12.6135 5.25975C12.6007 5.18275 12.5654 5.12017 12.5077 5.072C12.4501 5.024 12.3827 5 12.3057 5H3.69423C3.61723 5 3.5499 5.024 3.49223 5.072C3.43457 5.12017 3.39932 5.18275 3.38648 5.25975L2.04798 14.6443C2.03515 14.7339 2.06082 14.8157 2.12498 14.8895C2.18915 14.9632 2.26607 15 2.35573 15ZM7.99998 3.5C8.28332 3.5 8.52082 3.40417 8.71249 3.2125C8.90415 3.02083 8.99998 2.78333 8.99998 2.5C8.99998 2.21667 8.90415 1.97917 8.71249 1.7875C8.52082 1.59583 8.28332 1.5 7.99998 1.5C7.71665 1.5 7.47915 1.59583 7.28748 1.7875C7.09582 1.97917 6.99998 2.21667 6.99998 2.5C6.99998 2.78333 7.09582 3.02083 7.28748 3.2125C7.47915 3.40417 7.71665 3.5 7.99998 3.5ZM10.2672 3.5H12.3152C12.7704 3.5 13.1637 3.64908 13.4952 3.94725C13.8266 4.24525 14.0275 4.61667 14.098 5.0615L15.4365 14.4462C15.5135 14.9884 15.3737 15.4663 15.0172 15.8798C14.6609 16.2933 14.2032 16.5 13.6442 16.5H2.35573C1.79673 16.5 1.33907 16.2933 0.982734 15.8798C0.626234 15.4663 0.486484 14.9884 0.563484 14.4462L1.90198 5.0615C1.97248 4.61667 2.1734 4.24525 2.50473 3.94725C2.83623 3.64908 3.22957 3.5 3.68474 3.5H5.73273C5.66357 3.34617 5.60748 3.18692 5.56448 3.02225C5.52148 2.85742 5.49998 2.68333 5.49998 2.5C5.49998 1.80133 5.74198 1.21 6.22598 0.725999C6.70998 0.241999 7.30132 0 7.99998 0C8.69865 0 9.28999 0.241999 9.77399 0.725999C10.258 1.21 10.5 1.80133 10.5 2.5C10.5 2.68333 10.4785 2.85742 10.4355 3.02225C10.3925 3.18692 10.3364 3.34617 10.2672 3.5Z" fill="black" fill-opacity="0.65"/>
</svg>
